<svg fill="none" height="50" viewBox="0 0 105 50" width="105" xmlns="http://www.w3.org/2000/svg" xmlns:xlink="http://www.w3.org/1999/xlink"><filter id="a" color-interpolation-filters="sRGB" filterUnits="userSpaceOnUse" height="32" width="52" x="53" y="0"><feFlood flood-opacity="0" result="BackgroundImageFix"/><feBlend in="SourceGraphic" in2="BackgroundImageFix" mode="normal" result="shape"/><feGaussianBlur result="effect1_foregroundBlur_157_7" stdDeviation=".5"/></filter><radialGradient id="b" cx="0" cy="0" gradientTransform="matrix(25 0 0 21.4286 79 16)" gradientUnits="userSpaceOnUse" r="1"><stop offset="0" stop-color="#262626"/><stop offset=".25" stop-color="#b287fd"/></radialGradient><g filter="url(#a)"><path d="m104 16c-25 0-25 0-25 15 0-15 0-15-25-15 25 0 25 0 25-15 0 15 0 15 25 15z" fill="url(#b)"/></g><path d="m5.688 25v-14.808h-4.584v-2.71201h12.192v2.71201h-4.584v14.808zm10.8146 0v-17.52001h10.512v2.64001h-7.56v4.56h6.72v2.544h-6.72v5.136h7.56v2.64zm19.6707.24c-1.136 0-2.12-.208-2.952-.624-.832-.432-1.48-1.032-1.944-1.8-.448-.784-.672-1.704-.672-2.76v-7.632c0-1.056.224-1.968.672-2.73601.464-.784 1.112-1.384 1.944-1.8.832-.432 1.816-.648 2.952-.648 1.12 0 2.096.216 2.928.648.832.416 1.48 1.016 1.944 1.8.464.76801.696 1.68001.696 2.73601h-3.024c0-.816-.224-1.44-.672-1.872-.432-.448-1.056-.67201-1.872-.67201s-1.448.22401-1.896.67201c-.448.432-.672 1.056-.672 1.872v7.632c0 .816.224 1.448.672 1.896.448.432 1.08.648 1.896.648s1.44-.216 1.872-.648c.448-.448.672-1.08.672-1.896h3.024c0 1.056-.232 1.976-.696 2.76-.464.768-1.112 1.368-1.944 1.8-.832.416-1.808.624-2.928.624zm8.8466-.24v-17.52001h3v7.10401h4.704v-7.10401h3v17.52001h-3v-7.704h-4.704v7.704zm-44.1799 24 4.416-17.52h3.864l4.44 17.52h-3.072l-.96-4.248h-4.656l-.96 4.248zm4.584-6.696h3.552l-1.056-4.704c-.176-.784-.328-1.488-.456-2.112-.128-.64-.216-1.104-.264-1.392-.048.288-.136.752-.264 1.392-.128.624-.28 1.32-.456 2.088zm16.3586 6.936c-1.136 0-2.12-.208-2.952-.624-.832-.432-1.48-1.032-1.944-1.8-.448-.784-.672-1.704-.672-2.76v-7.632c0-1.056.224-1.968.672-2.736.464-.784 1.112-1.384 1.944-1.8.832-.432 1.816-.648 2.952-.648 1.12 0 2.096.216 2.928.648.832.416 1.48 1.016 1.944 1.8.464.768.696 1.68.696 2.736h-3.024c0-.816-.224-1.44-.672-1.872-.432-.448-1.056-.672-1.872-.672s-1.448.224-1.896.672c-.448.432-.672 1.056-.672 1.872v7.632c0 .816.224 1.448.672 1.896.448.432 1.08.648 1.896.648s1.44-.216 1.872-.648c.448-.448.672-1.08.672-1.896h3.024c0 1.056-.232 1.976-.696 2.76-.464.768-1.112 1.368-1.944 1.8-.832.416-1.808.624-2.928.624zm7.8387-.24 4.416-17.52h3.864l4.4399 17.52h-3.0719l-.96-4.248h-4.656l-.96 4.248zm4.584-6.696h3.552l-1.056-4.704c-.176-.784-.328-1.488-.456-2.112-.128-.64-.216-1.104-.264-1.392-.048.288-.136.752-.264 1.392-.128.624-.28 1.32-.456 2.088zm10.7666 6.696v-17.52h5.208c1.184 0 2.208.232 3.072.696.88.448 1.56 1.08 2.04 1.896s.72 1.776.72 2.88v6.552c0 1.104-.24 2.072-.72 2.904-.48.816-1.16 1.456-2.04 1.92-.864.448-1.888.672-3.072.672zm3-2.688h2.208c.864 0 1.552-.248 2.064-.744.512-.512.768-1.2.768-2.064v-6.552c0-.848-.256-1.52-.768-2.016-.512-.512-1.2-.768-2.064-.768h-2.208zm11.7026 2.688v-17.52h10.512v2.64h-7.56v4.56h6.72v2.544h-6.72v5.136h7.56v2.64zm13.5746 0v-17.52h3.912l1.968 7.536 1.992-7.536h3.936v17.52h-2.808v-7.368c0-1.008.024-2.048.072-3.12.064-1.088.136-2.136.216-3.144.08-1.024.168-1.952.264-2.784l-2.472 8.808h-2.472l-2.376-8.592c.144 1.104.272 2.424.384 3.96.128 1.52.192 3.144.192 4.872v7.368zm18.7827 0v-6.36l-5.136-11.16h3.168l2.712 6.072c.208.48.384.952.528 1.416s.24.824.288 1.08c.064-.256.16-.616.288-1.08.144-.464.32-.936.528-1.416l2.664-6.072h3.1202l-5.1362 11.16v6.36z" fill="#262626"/></svg>